<svg xmlns="http://www.w3.org/2000/svg" viewBox="0 0 51.1 46.01"><defs><style>.cls-1{fill:#231f20;}</style></defs><g id="Layer_2" data-name="Layer 2"><g id="Layer_1-2" data-name="Layer 1"><rect class="cls-1" x="13.77" y="12.89" width="9.67" height="2.56"/><rect class="cls-1" x="27.66" y="12.89" width="9.67" height="2.56"/><rect class="cls-1" x="16.16" y="17.22" width="4.89" height="4.89"/><rect class="cls-1" x="30.05" y="17.22" width="4.89" height="4.89"/><polygon class="cls-1" points="29.99 0 21.1 0 17.94 11 33.14 11 29.99 0"/><polygon class="cls-1" points="40.23 20.28 38.37 29.3 38.35 29.24 35.4 29.24 29.19 29.24 21.86 29.24 14.79 29.24 12.7 29.24 12.7 29.21 12.69 29.25 10.85 20.28 0 20.28 6.56 46.01 16.81 46.01 20.35 34.25 30.7 34.25 34.24 46.01 44.53 46.01 51.09 20.28 40.23 20.28"/></g></g></svg>