<svg xmlns="http://www.w3.org/2000/svg" viewBox="0 0 13.48 10.95"><g id="Layer_2" data-name="Layer 2"><g id="Layer_1-2" data-name="Layer 1"><path d="M13.37,6.56a1.52,1.52,0,0,0-.32-.51V2.81a1.79,1.79,0,0,0,.32-.53,1.73,1.73,0,0,0,.11-.6A1.58,1.58,0,0,0,13.34,1a1.65,1.65,0,0,0-.9-.9A1.57,1.57,0,0,0,11.79,0a1.82,1.82,0,0,0-.52.08,1.8,1.8,0,0,0-.46.23,1.54,1.54,0,0,0-.36.36,1.53,1.53,0,0,0-.25.45,1.7,1.7,0,0,0-1.87,0A1.53,1.53,0,0,0,8.08.67,1.8,1.8,0,0,0,7.71.31,1.74,1.74,0,0,0,7.26.08a1.73,1.73,0,0,0-1,0,1.8,1.8,0,0,0-.46.23A1.54,1.54,0,0,0,5.4.67a1.53,1.53,0,0,0-.25.45A1.85,1.85,0,0,0,4.7.91a1.71,1.71,0,0,0-1.42.21A1.77,1.77,0,0,0,2.66.31,1.8,1.8,0,0,0,2.2.08,1.82,1.82,0,0,0,1.68,0,1.57,1.57,0,0,0,1,.13a1.65,1.65,0,0,0-.9.9A1.57,1.57,0,0,0,0,1.68a1.73,1.73,0,0,0,.11.6,1.79,1.79,0,0,0,.32.53.15.15,0,0,0,0,.07V6.05a1.66,1.66,0,0,0-.31.51,1.73,1.73,0,0,0-.11.6A1.61,1.61,0,0,0,.22,8,1.09,1.09,0,0,0,0,8.64,1,1,0,0,0,.06,9a.8.8,0,0,0,.15.29A1,1,0,0,0,0,9.9a1.06,1.06,0,0,0,.08.4,1.13,1.13,0,0,0,.23.34,1.06,1.06,0,0,0,.33.22,1,1,0,0,0,.41.09H12.42a1,1,0,0,0,.41-.09,1,1,0,0,0,.56-.56.9.9,0,0,0,.09-.4,1,1,0,0,0-.21-.64A1.32,1.32,0,0,0,13.42,9a1,1,0,0,0,.06-.33,1.07,1.07,0,0,0-.06-.35,1.11,1.11,0,0,0-.17-.3,1.63,1.63,0,0,0,.23-.84A1.71,1.71,0,0,0,13.37,6.56ZM8.49,2.2a.8.8,0,0,1,.18-.27.71.71,0,0,1,.27-.18.71.71,0,0,1,.32-.07.72.72,0,0,1,.33.07.8.8,0,0,1,.27.18A1,1,0,0,1,10,2.2a.88.88,0,0,1,.07.33.64.64,0,0,1-.07.31,1,1,0,0,1-.17.27.81.81,0,0,1-.26.18.68.68,0,0,1-.31.08.52.52,0,0,1,.29.08.91.91,0,0,1,.21.18,1.28,1.28,0,0,1,.15.25l.13.28L9.5,5.33a.24.24,0,0,1-.24.14A.22.22,0,0,1,9,5.33L8.45,4.16l.13-.28a1.28,1.28,0,0,1,.15-.25.7.7,0,0,1,.2-.18.56.56,0,0,1,.3-.08.72.72,0,0,1-.32-.08.93.93,0,0,1-.26-.18,1,1,0,0,1-.17-.27.78.78,0,0,1-.06-.31A.72.72,0,0,1,8.49,2.2Zm-5.05,0a.8.8,0,0,1,.18-.27.68.68,0,0,1,.26-.18.78.78,0,0,1,.33-.07.72.72,0,0,1,.33.07.8.8,0,0,1,.27.18A1.27,1.27,0,0,1,5,2.2a.88.88,0,0,1,.06.33A.78.78,0,0,1,5,2.84a1,1,0,0,1-.17.27.93.93,0,0,1-.26.18.68.68,0,0,1-.31.08.52.52,0,0,1,.29.08.7.7,0,0,1,.2.18,1.28,1.28,0,0,1,.15.25c.05.09.09.19.14.28L4.44,5.33a.26.26,0,0,1-.46,0L3.39,4.16l.14-.28a1.28,1.28,0,0,1,.15-.25,1.12,1.12,0,0,1,.2-.18.56.56,0,0,1,.3-.08.69.69,0,0,1-.32-.08.93.93,0,0,1-.26-.18,1,1,0,0,1-.17-.27.78.78,0,0,1-.06-.31A.72.72,0,0,1,3.44,2.2Zm8.66.46a.42.42,0,0,1,.11.29V6.43a.84.84,0,0,1,.31.31.78.78,0,0,1,.11.42.88.88,0,0,1-.11.42.92.92,0,0,1-.31.31v.53h0v.42h0v.85H1.27V8.84h0V8.42h0V7.89A.84.84,0,0,1,1,7.58a.8.8,0,0,1,0-.84.77.77,0,0,1,.31-.31V3a.43.43,0,0,1,.1-.29.39.39,0,0,1,.28-.13.84.84,0,0,1-.32-.08.79.79,0,0,1-.25-.19A.65.65,0,0,1,.91,2a.71.71,0,0,1-.07-.32.93.93,0,0,1,.07-.33.68.68,0,0,1,.18-.26A.68.68,0,0,1,1.35.91.75.75,0,0,1,1.68.84.72.72,0,0,1,2,.91a.8.8,0,0,1,.27.18,1,1,0,0,1,.18.26.93.93,0,0,1,.07.33A.88.88,0,0,1,2.46,2a.69.69,0,0,1-.17.27A.68.68,0,0,1,2,2.45a.79.79,0,0,1-.31.08.67.67,0,0,1,.34.1.67.67,0,0,1,.23.27l.87,1.73c.07.15.14.3.22.45s.14.3.22.44a.81.81,0,0,0,.25.27.65.65,0,0,0,.36.1.63.63,0,0,0,.36-.1.72.72,0,0,0,.25-.27c.08-.14.15-.29.22-.44s.15-.3.22-.45L6.13,2.9a.55.55,0,0,1,.24-.26.57.57,0,0,1,.33-.11.79.79,0,0,1-.31-.08.68.68,0,0,1-.26-.18A.69.69,0,0,1,6,2a.88.88,0,0,1-.07-.32A.93.93,0,0,1,6,1.35a1,1,0,0,1,.18-.26A.8.8,0,0,1,6.41.91.72.72,0,0,1,6.74.84a.75.75,0,0,1,.33.07.68.68,0,0,1,.26.18.68.68,0,0,1,.18.26.75.75,0,0,1,.07.33A.87.87,0,0,1,7.52,2a.83.83,0,0,1-.17.27.76.76,0,0,1-.26.18.84.84,0,0,1-.32.08.6.6,0,0,1,.34.11.67.67,0,0,1,.24.26l.86,1.73c.08.14.15.29.22.43l.21.44a.88.88,0,0,0,.25.29.69.69,0,0,0,.37.1.71.71,0,0,0,.37-.1.78.78,0,0,0,.25-.29l.21-.44.23-.43.86-1.73a.55.55,0,0,1,.24-.26.57.57,0,0,1,.33-.11.85.85,0,0,1-.57-.27A.78.78,0,0,1,11,2,.87.87,0,0,1,11,1.68.75.75,0,0,1,11,1.35a.78.78,0,0,1,.17-.26.8.8,0,0,1,.27-.18.81.81,0,0,1,.66,0,.68.68,0,0,1,.26.18.83.83,0,0,1,.19.26.92.92,0,0,1,.06.33.87.87,0,0,1-.06.32.78.78,0,0,1-.17.26,1,1,0,0,1-.26.19.89.89,0,0,1-.32.08A.37.37,0,0,1,12.1,2.66Z"/></g></g></svg>