<svg xmlns="http://www.w3.org/2000/svg" viewBox="0 0 13.48 10.95"><g id="Layer_2" data-name="Layer 2"><g id="Layer_1-2" data-name="Layer 1"><path d="M13.05,6.05a1.52,1.52,0,0,1,.32.51,1.71,1.71,0,0,1,.11.59,1.63,1.63,0,0,1-.23.84,1.11,1.11,0,0,1,.17.3,1.07,1.07,0,0,1,.06.35,1,1,0,0,1-.06.33,1.32,1.32,0,0,1-.15.29,1,1,0,0,1,.21.64.9.9,0,0,1-.09.4,1,1,0,0,1-.56.56,1,1,0,0,1-.41.09H1.05a1,1,0,0,1-.41-.09,1.06,1.06,0,0,1-.33-.22,1.13,1.13,0,0,1-.23-.34A1.06,1.06,0,0,1,0,9.9a1,1,0,0,1,.21-.64A.8.8,0,0,1,.06,9,1,1,0,0,1,0,8.64,1.09,1.09,0,0,1,.22,8,1.61,1.61,0,0,1,0,7.16a1.73,1.73,0,0,1,.11-.6,1.66,1.66,0,0,1,.31-.51V2.88a.15.15,0,0,1,0-.07,1.79,1.79,0,0,1-.32-.53A1.73,1.73,0,0,1,0,1.68,1.57,1.57,0,0,1,.13,1,1.65,1.65,0,0,1,1,.13,1.57,1.57,0,0,1,1.68,0,1.82,1.82,0,0,1,2.2.08a1.8,1.8,0,0,1,.46.23,1.77,1.77,0,0,1,.62.81A1.71,1.71,0,0,1,4.7.91a1.85,1.85,0,0,1,.45.21A1.53,1.53,0,0,1,5.4.67,1.54,1.54,0,0,1,5.76.31,1.8,1.8,0,0,1,6.22.08a1.73,1.73,0,0,1,1,0,1.74,1.74,0,0,1,.45.23,1.8,1.8,0,0,1,.37.36,1.53,1.53,0,0,1,.25.45,1.7,1.7,0,0,1,1.87,0,1.53,1.53,0,0,1,.25-.45,1.54,1.54,0,0,1,.36-.36,1.8,1.8,0,0,1,.46-.23A1.82,1.82,0,0,1,11.79,0a1.57,1.57,0,0,1,.65.13,1.65,1.65,0,0,1,.9.9,1.58,1.58,0,0,1,.14.65,1.73,1.73,0,0,1-.11.6,1.79,1.79,0,0,1-.32.53V6.05ZM12.21,3a.42.42,0,0,0-.11-.29.37.37,0,0,0-.28-.13.89.89,0,0,0,.32-.08,1,1,0,0,0,.26-.19A.78.78,0,0,0,12.57,2a.87.87,0,0,0,.06-.32.92.92,0,0,0-.06-.33.83.83,0,0,0-.19-.26.68.68,0,0,0-.26-.18.81.81,0,0,0-.66,0,.8.8,0,0,0-.27.18.78.78,0,0,0-.17.26.75.75,0,0,0-.07.33A.87.87,0,0,0,11,2a.78.78,0,0,0,.17.26.85.85,0,0,0,.57.27.57.57,0,0,0-.33.11.55.55,0,0,0-.24.26l-.86,1.73-.23.43-.21.44a.78.78,0,0,1-.25.29.71.71,0,0,1-.37.1.69.69,0,0,1-.37-.1.88.88,0,0,1-.25-.29l-.21-.44c-.07-.14-.14-.29-.22-.43L7.35,2.9a.67.67,0,0,0-.24-.26.6.6,0,0,0-.34-.11.84.84,0,0,0,.32-.08.76.76,0,0,0,.26-.18A.83.83,0,0,0,7.52,2a.87.87,0,0,0,.06-.32.75.75,0,0,0-.07-.33.68.68,0,0,0-.18-.26A.68.68,0,0,0,7.07.91.75.75,0,0,0,6.74.84a.72.72,0,0,0-.33.07.8.8,0,0,0-.27.18A1,1,0,0,0,6,1.35a.93.93,0,0,0-.07.33A.88.88,0,0,0,6,2a.69.69,0,0,0,.17.27.68.68,0,0,0,.26.18.79.79,0,0,0,.31.08.57.57,0,0,0-.33.11.55.55,0,0,0-.24.26L5.26,4.63c-.07.15-.14.3-.22.45s-.14.3-.22.44a.72.72,0,0,1-.25.27.63.63,0,0,1-.36.1.65.65,0,0,1-.36-.1.81.81,0,0,1-.25-.27c-.08-.14-.15-.29-.22-.44s-.15-.3-.22-.45L2.29,2.9a.67.67,0,0,0-.23-.27.67.67,0,0,0-.34-.1A.79.79,0,0,0,2,2.45a.68.68,0,0,0,.26-.18A.69.69,0,0,0,2.46,2a.88.88,0,0,0,.07-.32.93.93,0,0,0-.07-.33,1,1,0,0,0-.18-.26A.8.8,0,0,0,2,.91.72.72,0,0,0,1.68.84a.75.75,0,0,0-.33.07.68.68,0,0,0-.26.18.68.68,0,0,0-.18.26.93.93,0,0,0-.07.33A.71.71,0,0,0,.91,2a.65.65,0,0,0,.17.26.79.79,0,0,0,.25.19.84.84,0,0,0,.32.08.39.39,0,0,0-.28.13.43.43,0,0,0-.1.29V6.43A.77.77,0,0,0,1,6.74a.8.8,0,0,0,0,.84.84.84,0,0,0,.31.31v.53H12.21V7.89a.92.92,0,0,0,.31-.31.88.88,0,0,0,.11-.42.78.78,0,0,0-.11-.42.84.84,0,0,0-.31-.31Zm0,5.89H1.27v.85H12.21ZM3.37,6.32a.88.88,0,0,1,.33.06A.83.83,0,0,1,4,6.57a.83.83,0,0,1,.19.26.94.94,0,0,1,0,.66A.83.83,0,0,1,4,7.75a.68.68,0,0,1-.26.18A.72.72,0,0,1,3.37,8,.72.72,0,0,1,3,7.93a.8.8,0,0,1-.27-.18,1,1,0,0,1-.18-.26.94.94,0,0,1,0-.66,1,1,0,0,1,.18-.26A1,1,0,0,1,3,6.38.88.88,0,0,1,3.37,6.32Zm-.21.95a.32.32,0,0,0,.22-.1A.29.29,0,0,0,3.47,7a.32.32,0,0,0-.09-.23.29.29,0,0,0-.22-.09A.31.31,0,0,0,2.84,7a.27.27,0,0,0,.1.22A.3.3,0,0,0,3.16,7.27Zm1-5.59a.78.78,0,0,0-.33.07.68.68,0,0,0-.26.18.8.8,0,0,0-.18.27.72.72,0,0,0-.07.33.78.78,0,0,0,.06.31,1,1,0,0,0,.17.27.93.93,0,0,0,.26.18.69.69,0,0,0,.32.08.56.56,0,0,0-.3.08,1.12,1.12,0,0,0-.2.18,1.28,1.28,0,0,0-.15.25l-.14.28L4,5.33a.26.26,0,0,0,.46,0L5,4.16c0-.09-.09-.19-.14-.28a1.28,1.28,0,0,0-.15-.25.7.7,0,0,0-.2-.18.52.52,0,0,0-.29-.08.68.68,0,0,0,.31-.08.93.93,0,0,0,.26-.18A1,1,0,0,0,5,2.84a.78.78,0,0,0,.06-.31A.88.88,0,0,0,5,2.2a1.27,1.27,0,0,0-.18-.27.8.8,0,0,0-.27-.18A.72.72,0,0,0,4.21,1.68ZM6.74,5.89A1,1,0,0,1,7.15,6a1.13,1.13,0,0,1,.34.23,1.06,1.06,0,0,1,.22.33A1,1,0,0,1,7.79,7a1.06,1.06,0,0,1-.08.4,1,1,0,0,1-.23.33,1.23,1.23,0,0,1-.33.23A1.15,1.15,0,0,1,6.74,8a1.11,1.11,0,0,1-.41-.08A1.13,1.13,0,0,1,6,7.69a1.19,1.19,0,0,1-.22-.33A1,1,0,0,1,5.68,7a1,1,0,0,1,.09-.41A1,1,0,0,1,6.33,6,1,1,0,0,1,6.74,5.89ZM6.53,7A.45.45,0,0,0,7,6.53a.41.41,0,0,0-.12-.3.44.44,0,0,0-.3-.12.41.41,0,0,0-.42.42.44.44,0,0,0,.12.3A.41.41,0,0,0,6.53,7ZM9.26,1.68a.71.71,0,0,0-.32.07.71.71,0,0,0-.27.18.8.8,0,0,0-.18.27.72.72,0,0,0-.07.33.78.78,0,0,0,.06.31,1,1,0,0,0,.17.27.93.93,0,0,0,.26.18.72.72,0,0,0,.32.08.56.56,0,0,0-.3.08.7.7,0,0,0-.2.18,1.28,1.28,0,0,0-.15.25l-.13.28L9,5.33a.22.22,0,0,0,.22.14.24.24,0,0,0,.24-.14l.58-1.17L10,3.88a1.28,1.28,0,0,0-.15-.25.91.91,0,0,0-.21-.18.52.52,0,0,0-.29-.08.68.68,0,0,0,.31-.08.81.81,0,0,0,.26-.18A1,1,0,0,0,10,2.84a.64.64,0,0,0,.07-.31A.88.88,0,0,0,10,2.2a1,1,0,0,0-.18-.27.8.8,0,0,0-.27-.18A.72.72,0,0,0,9.26,1.68Zm.85,4.64a1,1,0,0,1,.33.06.83.83,0,0,1,.26.19.68.68,0,0,1,.18.26.81.81,0,0,1,0,.66.88.88,0,0,1-.44.44.78.78,0,0,1-.33.07.72.72,0,0,1-.33-.07.8.8,0,0,1-.27-.18,1,1,0,0,1-.18-.26.81.81,0,0,1,0-.66,1,1,0,0,1,.18-.26,1,1,0,0,1,.27-.19A.88.88,0,0,1,10.11,6.32Zm-.21.95a.32.32,0,0,0,.22-.1A.29.29,0,0,0,10.21,7a.32.32,0,0,0-.09-.23.29.29,0,0,0-.22-.09A.31.31,0,0,0,9.58,7a.29.29,0,0,0,.09.22A.34.34,0,0,0,9.9,7.27Z"/></g></g></svg>