<svg xmlns="http://www.w3.org/2000/svg" viewBox="0 0 332.15 332.15"><g id="Layer_2" data-name="Layer 2"><g id="Layer_1-2" data-name="Layer 1"><path d="M152.22.64A166.06,166.06,0,0,0,.64,152.22C-8.13,258.41,73.74,340.28,179.93,331.5A166,166,0,0,0,331.5,179.93C340.28,73.74,258.41-8.13,152.22.64Zm116,218.06L218.7,268.25a1,1,0,0,1-1.43,0l-49.74-49.74a1,1,0,0,0-1.43,0L115,269.59a1,1,0,0,1-1.43,0L64,220a1,1,0,0,1,0-1.43l51.08-51.08a1,1,0,0,0,0-1.43L62.93,113.91a1,1,0,0,1,0-1.43l49.55-49.55a1,1,0,0,1,1.43,0l52.19,52.19a1,1,0,0,0,1.43,0l50.86-50.85a1,1,0,0,1,1.43,0l49.54,49.55a1,1,0,0,1,0,1.43L218.51,166.1a1,1,0,0,0,0,1.43l49.74,49.74A1,1,0,0,1,268.25,218.7Z"/></g></g></svg>