<svg id="Layer_1" data-name="Layer 1" xmlns="http://www.w3.org/2000/svg" viewBox="0 0 241.01 131.65"><defs><style>.cls-1{font-size:12px;stroke:#231f20;stroke-miterlimit:10;stroke-width:0.25px;font-family:MyriadPro-Regular, Myriad Pro;}.cls-1,.cls-2{fill:#231f20;}.cls-3{fill:none;}.cls-4{fill:#fff;}</style></defs><text class="cls-1" transform="translate(0.12 128.52)">Langwiz</text><polygon class="cls-2" points="23.57 94.67 19.03 94.67 17.42 100.28 25.17 100.28 23.57 94.67"/><polygon class="cls-2" points="28.79 105.02 27.84 109.62 27.83 109.59 26.33 109.59 23.16 109.59 19.42 109.59 15.81 109.59 14.74 109.59 14.74 109.58 14.74 109.6 13.8 105.02 8.26 105.02 11.61 118.15 16.84 118.15 18.65 112.15 23.93 112.15 25.74 118.15 30.99 118.15 34.34 105.02 28.79 105.02"/><path class="cls-3" d="M75.55,121.39" transform="translate(-58.13 -21.11)"/><path class="cls-3" d="M83.3,121.39" transform="translate(-58.13 -21.11)"/><rect class="cls-2" x="203.69" y="12.89" width="9.67" height="2.56"/><rect class="cls-2" x="217.57" y="12.89" width="9.67" height="2.56"/><rect class="cls-2" x="206.07" y="17.22" width="4.89" height="4.89"/><rect class="cls-2" x="219.96" y="17.22" width="4.89" height="4.89"/><polygon class="cls-2" points="219.91 0 211.02 0 207.85 11 223.05 11 219.91 0"/><polygon class="cls-2" points="230.14 20.28 228.28 29.3 228.27 29.24 225.32 29.24 219.11 29.24 211.77 29.24 204.71 29.24 202.61 29.24 202.61 29.21 202.6 29.25 200.76 20.28 189.92 20.28 196.48 46.01 206.73 46.01 210.26 34.25 220.62 34.25 224.16 46.01 234.45 46.01 241.01 20.28 230.14 20.28"/><polygon class="cls-2" points="17.77 106.11 17.77 103.15 19.06 103.15 19.06 102.18 16.04 102.18 16.04 107.07 19.06 107.07 19.06 106.11 17.77 106.11"/><rect class="cls-2" x="23.53" y="102.18" width="3.02" height="4.89"/><rect class="cls-4" x="25.26" y="103.15" width="1.55" height="2.96"/></svg>