<svg xmlns="http://www.w3.org/2000/svg" viewBox="0 0 580.19 475.4"><g id="Layer_2" data-name="Layer 2"><g id="Layer_1-2" data-name="Layer 1"><path d="M0,276.8V0H28.28V276.8Z"/><path d="M91.25,129.92q23.81-14.86,55-14.87,57.72,0,57.72,60.61V278.39H176V253.72h-.73q-16.59,28.43-48.91,28.42-23.24,0-36.94-12.55T75.66,235.68q0-44.73,53-52.09L176,177q0-39.11-32.33-39.11-28.71,0-52.37,19.34Zm47.32,73.44q-19.62,2.59-27,9.81t-7.43,20.2q0,11.4,8.08,18.62t21.35,7.21q18.48,0,30.45-13t12-32.61v-15.3Z"/><path d="M396,278.39H367.83V187.63q0-49.2-35.93-49.2-18.61,0-30.59,13.85t-12,35.06v91H261.05V118.81h28.29v26.4h.57q18-30.15,52.38-30.16,26.26,0,40,16.81t13.71,49Z"/><path d="M551.9,118.81v21.64h-.58Q535.9,115.06,504,115.06q-33.19,0-53.1,23.89T431,203.66q0,35.51,18.05,57t48,21.48q36,0,54.23-30.15h.58v16.88q0,61.2-58.15,61.18a94.79,94.79,0,0,1-35.1-7.17,135.17,135.17,0,0,1-14.94-7.05h-1.18v26.65c.85.43,1.7.84,2.57,1.23q21.11,9.84,49.09,9.87,86,0,86-88.59V118.81Zm0,86.85q.17,23.1-13,38.11t-33.77,15q-20.48,0-32.88-15.74t-12.43-41.12q0-29.55,12.84-46.52t35.92-17A40.87,40.87,0,0,1,539.5,151.7a44,44,0,0,1,12.4,31.74Z"/><path d="M206.6,387.39l-12.34,46.87A68.57,68.57,0,0,0,191.67,449h-1.29a85.38,85.38,0,0,0-2.33-14.72L154.59,315.81h-26.1L94.12,433.69a69.73,69.73,0,0,0-2.74,15H90.23a84.22,84.22,0,0,0-2.16-14.58L75.49,387.39H48.23l26.44,88h28.56l34.34-112.24a65.26,65.26,0,0,0,3.31-15h.58a76.28,76.28,0,0,0,2.6,15.29L175.66,475l.14.44h29.44l.13-.44,26.13-87.56Z"/><path d="M261.12,475.4V315.81H289.4V475.4Z"/><path d="M458.65,325v-2.17a135.17,135.17,0,0,1-14.94-7.05H334.26v23.36H418.4L325.62,466v9.36H458.07V452H366.44L445.1,343.7Z"/></g></g></svg>