<svg xmlns="http://www.w3.org/2000/svg" viewBox="0 0 212.04 173.74"><defs><style>.cls-1{fill:#fff;}</style></defs><g id="Layer_2" data-name="Layer 2"><g id="Layer_1-2" data-name="Layer 1"><path class="cls-1" d="M0,101.16V0H10.34V101.16Z"/><path class="cls-1" d="M33.35,47.48a37.16,37.16,0,0,1,20.09-5.43q21.09,0,21.09,22.15v37.54H64.3v-9H64Q58,103.11,46.16,103.12q-8.49,0-13.5-4.59t-5-12.39q0-16.35,19.36-19L64.3,64.67q0-14.28-11.81-14.29a29.53,29.53,0,0,0-19.14,7.07Zm17.3,26.84q-7.18,1-9.89,3.59A9.82,9.82,0,0,0,38,85.29a8.71,8.71,0,0,0,3,6.8,11.28,11.28,0,0,0,7.81,2.64A14.47,14.47,0,0,0,59.93,90,16.91,16.91,0,0,0,64.3,78.07V72.48Z"/><path class="cls-1" d="M144.71,101.74H134.43V68.57q0-18-13.13-18a14.14,14.14,0,0,0-11.18,5.06,18.9,18.9,0,0,0-4.38,12.82v33.27H95.41V43.42h10.33v9.65H106q6.58-11,19.14-11,9.6,0,14.61,6.14t5,17.91Z"/><path class="cls-1" d="M201.7,43.42v7.91h-.21Q195.85,42,184.2,42.05q-12.13,0-19.41,8.73t-7.28,23.65q0,13,6.6,20.83t17.56,7.85q13.17,0,19.82-11h.21v6.17q0,22.36-21.25,22.36A34.65,34.65,0,0,1,167.62,118a49.51,49.51,0,0,1-5.46-2.58h-.43v9.74c.31.16.62.31.94.45a42,42,0,0,0,17.94,3.61q31.42,0,31.43-32.38V43.42Zm0,31.74q.06,8.45-4.74,13.93a15.66,15.66,0,0,1-12.34,5.48,14.53,14.53,0,0,1-12-5.75q-4.54-5.75-4.54-15,0-10.8,4.69-17t13.13-6.2a14.94,14.94,0,0,1,11.29,4.85A16.08,16.08,0,0,1,201.7,67Z"/><path class="cls-1" d="M75.51,141.58,71,158.71a25.07,25.07,0,0,0-1,5.38h-.47a31.14,31.14,0,0,0-.85-5.38L56.5,115.42H47L34.4,158.5a25.29,25.29,0,0,0-1,5.49H33a31,31,0,0,0-.79-5.33l-4.6-17.08h-10l9.66,32.16H37.73l12.55-41a24,24,0,0,0,1.21-5.49h.21a28.25,28.25,0,0,0,.95,5.59L64.2,173.58l0,.16H75l0-.16,9.55-32Z"/><path class="cls-1" d="M95.43,173.74V115.42h10.34v58.32Z"/><path class="cls-1" d="M167.62,118.79V118a49.51,49.51,0,0,1-5.46-2.58h-40V124h30.75L119,170.32v3.42h48.41V165.2H133.92l28.75-39.59Z"/></g></g></svg>